<?xml version="1.0" encoding="UTF-8"?>
<svg xmlns="http://www.w3.org/2000/svg" width="91mm" height="61mm"
     viewBox="0 0 91 61">
  <title>LogistiCore business card front</title>
  <desc>91 × 61 mm artwork including 3 mm bleed; finished trim 85 × 55 mm.</desc>
  
  <rect width="91" height="61" fill="#0A1628"/>
  <g fill="none" stroke="#00BCD4" stroke-width="0.42" stroke-linecap="round" stroke-linejoin="round"><line x1="17.000" y1="22.250" x2="8.750" y2="27.500"/><line x1="8.750" y1="27.500" x2="17.000" y2="31.250"/><line x1="17.000" y1="31.250" x2="25.250" y2="27.500"/><line x1="25.250" y1="27.500" x2="17.000" y2="22.250"/><line x1="8.750" y1="27.500" x2="8.750" y2="35.000"/><line x1="8.750" y1="35.000" x2="17.000" y2="39.200"/><line x1="17.000" y1="39.200" x2="17.000" y2="31.250"/><line x1="25.250" y1="27.500" x2="25.250" y2="35.000"/><line x1="25.250" y1="35.000" x2="17.000" y2="39.200"/><line x1="12.050" y1="26.300" x2="15.500" y2="28.700"/><line x1="21.950" y1="26.300" x2="18.500" y2="28.700"/><line x1="11.750" y1="30.800" x2="14.300" y2="33.200"/><line x1="14.300" y1="33.200" x2="14.300" y2="36.800"/><line x1="22.250" y1="30.800" x2="19.700" y2="33.200"/><line x1="19.700" y1="33.200" x2="19.700" y2="36.800"/><circle cx="12.050" cy="26.300" r="0.525"/><circle cx="21.950" cy="26.300" r="0.525"/><circle cx="11.750" cy="30.800" r="0.525"/><circle cx="22.250" cy="30.800" r="0.525"/><circle cx="14.300" cy="36.800" r="0.525"/><circle cx="19.700" cy="36.800" r="0.525"/></g>
  <text x="30" y="29.4" fill="#FFFFFF" font-family="Helvetica, Arial, sans-serif"
        font-size="7" font-weight="700" letter-spacing="0.75">LOGISTICORE</text>
  <rect x="30" y="31.3" width="51" height="0.28" fill="#D4A84B"/>
  <text x="30" y="36.7" fill="#00BCD4" font-family="Helvetica, Arial, sans-serif"
        font-size="2.25" font-weight="700" letter-spacing="0.55">FREIGHT FORWARDING SOFTWARE</text>

</svg>
